<svg xmlns="http://www.w3.org/2000/svg" viewBox="0 0 64 64" width="64" height="64">
  <!-- Spearhead outline -->
  <path d="M32 3 L54 32 L32 61 L10 32Z"
        fill="none" stroke="#6a8070" stroke-opacity="0.5" stroke-width="1.4" stroke-linejoin="round"/>

  <!-- Constraint cross -->
  <line x1="16" y1="19" x2="48" y2="45" stroke="#6a8070" stroke-opacity="0.08" stroke-width="0.5"/>
  <line x1="48" y1="19" x2="16" y2="45" stroke="#6a8070" stroke-opacity="0.08" stroke-width="0.5"/>

  <!-- Flow ticks -->
  <line x1="32" y1="6" x2="32" y2="12" stroke="#6a8070" stroke-opacity="0.2" stroke-width="0.7" stroke-linecap="round"/>
  <line x1="51" y1="32" x2="46" y2="32" stroke="#6a8070" stroke-opacity="0.2" stroke-width="0.7" stroke-linecap="round"/>
  <line x1="32" y1="58" x2="32" y2="52" stroke="#6a8070" stroke-opacity="0.2" stroke-width="0.7" stroke-linecap="round"/>
  <line x1="13" y1="32" x2="18" y2="32" stroke="#6a8070" stroke-opacity="0.2" stroke-width="0.7" stroke-linecap="round"/>

  <!-- A (left) -->
  <line x1="26" y1="25" x2="22" y2="41" stroke="#7a9080" stroke-width="1.6" stroke-linecap="round"/>
  <line x1="26" y1="25" x2="30" y2="41" stroke="#7a9080" stroke-width="1.6" stroke-linecap="round"/>
  <line x1="23.5" y1="35" x2="28.5" y2="35" stroke="#7a9080" stroke-width="1.1" stroke-linecap="round"/>

  <!-- L (right) -->
  <line x1="36" y1="25" x2="36" y2="41" stroke="#7a9080" stroke-width="1.6" stroke-linecap="round"/>
  <line x1="36" y1="41" x2="42" y2="41" stroke="#7a9080" stroke-width="1.6" stroke-linecap="round"/>

  <!-- Tip nodes -->
  <circle cx="32" cy="3" r="2.5" fill="#7a9080"/>
  <circle cx="54" cy="32" r="2.5" fill="#6a8070"/>
  <circle cx="32" cy="61" r="2.5" fill="#6a8070"/>
  <circle cx="10" cy="32" r="2.5" fill="#6a8070"/>
</svg>
